# xmcd CD database file
#
# Track frame offsets:
#	150
#	11522
#	23837
#	35478
#	46397
#	58691
#	71221
#	83121
#	100274
#	111809
#	120557
#	132787
#	144325
#	156171
#	172501
#	182342
#	191512
#	204276
#	216603
#	237223
#
# Disc length: 3319 seconds
#
# Revision: 0
# Processed by: cddbd v1.5.2PL0 Copyright (c) Steve Scherf et al.
# Submitted via: CDex 1.51
#
DISCID=0b0cf514
DTITLE=Various Artist - Ultimate Country Box - Disc 2
DYEAR=1999
DGENRE=Country
TTITLE0=Don Gibson - Sea Of Heartbreak
TTITLE1=Sandy Posey - Single Girl
TTITLE2=Donna Fargo - The Happiest Girl In The Whole USA
TTITLE3=Hank Locklin - Send Me The Pillow You Dream On
TTITLE4=Jack Blanchard and Misty Morgan - Tennessee Bird Walk
TTITLE5=Wanda Jackson - Crazy
TTITLE6=Skeeter davis - The End Of The World
TTITLE7=Ray Price - For The Good Time4s
TTITLE8=Sammi Smith - Help Me Make It Through The Night
TTITLE9=Ferlin Husky - Wings Of A Dove
TTITLE10=Susan Raye - L.A. Internional Airport
TTITLE11=Freddy Fender - Before The Next Teardrop Falls
TTITLE12=Conway Twitty - It's Onl;y Make Believe
TTITLE13=Unknown - Cool Water
TTITLE14=Hank Locklin - Geisha Girl
TTITLE15=Unknown - Good Time Charlies
TTITLE16=Nancy Sinatra - My Elusive Dream
TTITLE17=Unknown - I Fought The Law
TTITLE18=Unknown - Little Green Apples
TTITLE19=Unknown - I Can't Stop Loving You
EXTD=YEAR: 1999
EXTT0=
EXTT1=
EXTT2=
EXTT3=
EXTT4=
EXTT5=
EXTT6=
EXTT7=
EXTT8=
EXTT9=
EXTT10=
EXTT11=
EXTT12=
EXTT13=
EXTT14=
EXTT15=
EXTT16=
EXTT17=
EXTT18=
EXTT19=
PLAYORDER=
